<svg width="360" height="420" viewBox="0 0 360 420" fill="none" xmlns="http://www.w3.org/2000/svg">
<path d="M360 0H0V420H360V0Z" fill="#3A3838" fill-opacity="0.86"/>
<path d="M249.5 188.5H111.5V231.5H249.5V188.5Z" stroke="white" stroke-linejoin="round"/>
<path d="M145.952 222.266H145.84C145.231 222.266 144.719 221.767 144.675 221.129C144.63 220.46 145.119 219.878 145.764 219.834C145.789 219.832 145.816 219.832 145.842 219.832C146.459 219.832 146.975 220.321 147.021 220.948C147.033 221.197 146.993 221.551 146.737 221.843L146.731 221.85L146.725 221.857C146.529 222.091 146.262 222.232 145.952 222.266ZM132.22 222.26C131.569 222.26 131.04 221.717 131.04 221.05C131.04 220.383 131.569 219.84 132.22 219.84C132.871 219.84 133.4 220.383 133.4 221.05C133.4 221.717 132.871 222.26 132.22 222.26Z" fill="white"/>
<path d="M145.876 221.266C145.922 221.255 145.943 221.234 145.961 221.213C145.968 221.204 145.976 221.195 145.984 221.186C146.02 221.144 146.024 221.055 146.023 221.01C146.01 220.904 145.919 220.832 145.842 220.832C145.838 220.832 145.834 220.832 145.832 220.832C145.754 220.837 145.666 220.941 145.672 221.062C145.682 221.179 145.768 221.266 145.84 221.266H145.876ZM132.22 221.26C132.319 221.26 132.4 221.166 132.4 221.05C132.4 220.934 132.319 220.84 132.22 220.84C132.121 220.84 132.04 220.934 132.04 221.05C132.04 221.166 132.121 221.26 132.22 221.26ZM146 223.266C145.952 223.266 145.888 223.266 145.84 223.266C144.702 223.266 143.757 222.354 143.677 221.198C143.597 219.993 144.494 218.918 145.696 218.836C145.745 218.833 145.793 218.832 145.842 218.832C146.98 218.832 147.942 219.732 148.02 220.888C148.051 221.491 147.875 222.061 147.49 222.501C147.106 222.958 146.577 223.218 146 223.266ZM132.22 223.26C131.016 223.26 130.04 222.271 130.04 221.05C130.04 219.829 131.016 218.84 132.22 218.84C133.424 218.84 134.4 219.829 134.4 221.05C134.4 222.271 133.424 223.26 132.22 223.26ZM145.199 216.394H133.134C132.701 216.394 132.316 216.1 132.204 215.677L128.278 201.248H125.522C124.994 201.248 124.561 200.809 124.561 200.27C124.561 199.733 124.994 199.293 125.522 199.293H129C129.432 199.293 129.816 199.586 129.929 200.01L133.854 214.439H144.558L148.115 206.134H136.258C135.729 206.134 135.296 205.694 135.296 205.156C135.296 204.619 135.729 204.179 136.258 204.179H149.589C149.91 204.179 150.215 204.342 150.39 204.619C150.567 204.895 150.599 205.237 150.47 205.547L146.08 215.807C145.92 216.165 145.583 216.394 145.199 216.394Z" fill="white"/>
<path d="M145.876 221.266C145.922 221.255 145.943 221.234 145.961 221.213C145.968 221.204 145.976 221.195 145.984 221.186C146.02 221.144 146.024 221.055 146.023 221.01C146.01 220.904 145.919 220.832 145.842 220.832C145.838 220.832 145.834 220.832 145.832 220.832C145.754 220.837 145.666 220.941 145.672 221.062C145.682 221.179 145.768 221.266 145.84 221.266H145.876ZM132.22 221.26C132.319 221.26 132.4 221.166 132.4 221.05C132.4 220.934 132.319 220.84 132.22 220.84C132.121 220.84 132.04 220.934 132.04 221.05C132.04 221.166 132.121 221.26 132.22 221.26ZM146 223.266C145.952 223.266 145.888 223.266 145.84 223.266C144.702 223.266 143.757 222.354 143.677 221.198C143.597 219.993 144.494 218.918 145.696 218.836C145.745 218.833 145.793 218.832 145.842 218.832C146.98 218.832 147.942 219.732 148.02 220.888C148.051 221.491 147.875 222.061 147.49 222.501C147.106 222.958 146.577 223.218 146 223.266ZM132.22 223.26C131.016 223.26 130.04 222.271 130.04 221.05C130.04 219.829 131.016 218.84 132.22 218.84C133.424 218.84 134.4 219.829 134.4 221.05C134.4 222.271 133.424 223.26 132.22 223.26ZM145.199 216.394H133.134C132.701 216.394 132.316 216.1 132.204 215.677L128.278 201.248H125.522C124.994 201.248 124.561 200.809 124.561 200.27C124.561 199.733 124.994 199.293 125.522 199.293H129C129.432 199.293 129.816 199.586 129.929 200.01L133.854 214.439H144.558L148.115 206.134H136.258C135.729 206.134 135.296 205.694 135.296 205.156C135.296 204.619 135.729 204.179 136.258 204.179H149.589C149.91 204.179 150.215 204.342 150.39 204.619C150.567 204.895 150.599 205.237 150.47 205.547L146.08 215.807C145.92 216.165 145.583 216.394 145.199 216.394Z" fill="white"/>
<path d="M168.201 212.511L166.626 208.43C166.579 208.309 166.53 208.169 166.479 208.01C166.428 207.847 166.379 207.674 166.332 207.492C166.234 207.87 166.134 208.185 166.031 208.437L164.456 212.511H168.201ZM171.029 216.235H169.979C169.858 216.235 169.76 216.205 169.685 216.144C169.61 216.083 169.554 216.006 169.517 215.913L168.579 213.491H164.078L163.14 215.913C163.112 215.997 163.058 216.072 162.979 216.137C162.9 216.202 162.802 216.235 162.685 216.235H161.635L165.646 206.204H167.018L171.029 216.235ZM176.524 210.831C176.291 210.518 176.039 210.301 175.768 210.18C175.498 210.054 175.194 209.991 174.858 209.991C174.2 209.991 173.694 210.227 173.339 210.698C172.985 211.169 172.807 211.841 172.807 212.714C172.807 213.176 172.847 213.573 172.926 213.904C173.006 214.231 173.122 214.501 173.276 214.716C173.43 214.926 173.619 215.08 173.843 215.178C174.067 215.276 174.322 215.325 174.606 215.325C175.017 215.325 175.374 215.232 175.677 215.045C175.985 214.858 176.268 214.595 176.524 214.254V210.831ZM177.77 205.924V216.235H177.028C176.851 216.235 176.739 216.149 176.692 215.976L176.58 215.115C176.277 215.479 175.932 215.773 175.544 215.997C175.157 216.221 174.709 216.333 174.2 216.333C173.794 216.333 173.426 216.256 173.094 216.102C172.763 215.943 172.481 215.712 172.247 215.409C172.014 215.106 171.834 214.728 171.708 214.275C171.582 213.822 171.519 213.302 171.519 212.714C171.519 212.191 171.589 211.706 171.729 211.258C171.869 210.805 172.07 210.413 172.331 210.082C172.593 209.751 172.912 209.492 173.29 209.305C173.673 209.114 174.102 209.018 174.578 209.018C175.012 209.018 175.383 209.093 175.691 209.242C176.004 209.387 176.282 209.59 176.524 209.851V205.924H177.77ZM184.358 210.831C184.125 210.518 183.873 210.301 183.602 210.18C183.332 210.054 183.028 209.991 182.692 209.991C182.034 209.991 181.528 210.227 181.173 210.698C180.819 211.169 180.641 211.841 180.641 212.714C180.641 213.176 180.681 213.573 180.76 213.904C180.84 214.231 180.956 214.501 181.11 214.716C181.264 214.926 181.453 215.08 181.677 215.178C181.901 215.276 182.156 215.325 182.44 215.325C182.851 215.325 183.208 215.232 183.511 215.045C183.819 214.858 184.102 214.595 184.358 214.254V210.831ZM185.604 205.924V216.235H184.862C184.685 216.235 184.573 216.149 184.526 215.976L184.414 215.115C184.111 215.479 183.766 215.773 183.378 215.997C182.991 216.221 182.543 216.333 182.034 216.333C181.628 216.333 181.26 216.256 180.928 216.102C180.597 215.943 180.315 215.712 180.081 215.409C179.848 215.106 179.668 214.728 179.542 214.275C179.416 213.822 179.353 213.302 179.353 212.714C179.353 212.191 179.423 211.706 179.563 211.258C179.703 210.805 179.904 210.413 180.165 210.082C180.427 209.751 180.746 209.492 181.124 209.305C181.507 209.114 181.936 209.018 182.412 209.018C182.846 209.018 183.217 209.093 183.525 209.242C183.838 209.387 184.116 209.59 184.358 209.851V205.924H185.604ZM193.331 216.347C192.771 216.347 192.34 216.191 192.036 215.878C191.738 215.565 191.588 215.115 191.588 214.527V210.187H190.734C190.66 210.187 190.597 210.166 190.545 210.124C190.494 210.077 190.468 210.007 190.468 209.914V209.417L191.63 209.27L191.917 207.079C191.931 207.009 191.962 206.953 192.008 206.911C192.06 206.864 192.125 206.841 192.204 206.841H192.834V209.284H194.885V210.187H192.834V214.443C192.834 214.742 192.907 214.963 193.051 215.108C193.196 215.253 193.383 215.325 193.611 215.325C193.742 215.325 193.854 215.309 193.947 215.276C194.045 215.239 194.129 215.199 194.199 215.157C194.269 215.115 194.328 215.078 194.374 215.045C194.426 215.008 194.47 214.989 194.507 214.989C194.573 214.989 194.631 215.029 194.682 215.108L195.046 215.703C194.832 215.904 194.573 216.062 194.269 216.179C193.966 216.291 193.653 216.347 193.331 216.347ZM199.12 209.032C199.638 209.032 200.104 209.118 200.52 209.291C200.935 209.464 201.29 209.709 201.584 210.026C201.878 210.343 202.102 210.728 202.256 211.181C202.414 211.629 202.494 212.131 202.494 212.686C202.494 213.246 202.414 213.75 202.256 214.198C202.102 214.646 201.878 215.029 201.584 215.346C201.29 215.663 200.935 215.908 200.52 216.081C200.104 216.249 199.638 216.333 199.12 216.333C198.597 216.333 198.126 216.249 197.706 216.081C197.29 215.908 196.936 215.663 196.642 215.346C196.348 215.029 196.121 214.646 195.963 214.198C195.809 213.75 195.732 213.246 195.732 212.686C195.732 212.131 195.809 211.629 195.963 211.181C196.121 210.728 196.348 210.343 196.642 210.026C196.936 209.709 197.29 209.464 197.706 209.291C198.126 209.118 198.597 209.032 199.12 209.032ZM199.12 215.36C199.82 215.36 200.342 215.127 200.688 214.66C201.033 214.189 201.206 213.533 201.206 212.693C201.206 211.848 201.033 211.19 200.688 210.719C200.342 210.248 199.82 210.012 199.12 210.012C198.765 210.012 198.455 210.073 198.189 210.194C197.927 210.315 197.708 210.49 197.531 210.719C197.358 210.948 197.227 211.23 197.139 211.566C197.055 211.897 197.013 212.273 197.013 212.693C197.013 213.533 197.185 214.189 197.531 214.66C197.881 215.127 198.41 215.36 199.12 215.36ZM214.992 214.163C215.067 214.163 215.132 214.193 215.188 214.254L215.727 214.835C215.317 215.311 214.817 215.682 214.229 215.948C213.646 216.214 212.939 216.347 212.108 216.347C211.39 216.347 210.736 216.223 210.148 215.976C209.56 215.724 209.059 215.374 208.643 214.926C208.228 214.473 207.906 213.932 207.677 213.302C207.449 212.672 207.334 211.979 207.334 211.223C207.334 210.467 207.453 209.774 207.691 209.144C207.929 208.514 208.263 207.973 208.692 207.52C209.126 207.067 209.644 206.717 210.246 206.47C210.848 206.218 211.513 206.092 212.241 206.092C212.955 206.092 213.585 206.206 214.131 206.435C214.677 206.664 215.158 206.974 215.573 207.366L215.125 207.989C215.097 208.036 215.06 208.075 215.013 208.108C214.971 208.136 214.913 208.15 214.838 208.15C214.754 208.15 214.652 208.106 214.53 208.017C214.409 207.924 214.25 207.821 214.054 207.709C213.858 207.597 213.613 207.497 213.319 207.408C213.025 207.315 212.664 207.268 212.234 207.268C211.716 207.268 211.243 207.359 210.813 207.541C210.384 207.718 210.013 207.977 209.7 208.318C209.392 208.659 209.152 209.074 208.979 209.564C208.807 210.054 208.72 210.607 208.72 211.223C208.72 211.848 208.809 212.406 208.986 212.896C209.168 213.386 209.413 213.801 209.721 214.142C210.034 214.478 210.4 214.735 210.82 214.912C211.245 215.089 211.702 215.178 212.192 215.178C212.491 215.178 212.759 215.162 212.997 215.129C213.24 215.092 213.462 215.036 213.662 214.961C213.868 214.886 214.057 214.793 214.229 214.681C214.407 214.564 214.582 214.427 214.754 214.268C214.834 214.198 214.913 214.163 214.992 214.163ZM220.851 213.043C220.277 213.062 219.787 213.108 219.381 213.183C218.979 213.253 218.65 213.346 218.394 213.463C218.142 213.58 217.957 213.717 217.841 213.876C217.729 214.035 217.673 214.212 217.673 214.408C217.673 214.595 217.703 214.756 217.764 214.891C217.824 215.026 217.906 215.138 218.009 215.227C218.116 215.311 218.24 215.374 218.38 215.416C218.524 215.453 218.678 215.472 218.842 215.472C219.061 215.472 219.262 215.451 219.444 215.409C219.626 215.362 219.796 215.297 219.955 215.213C220.118 215.129 220.272 215.029 220.417 214.912C220.566 214.795 220.711 214.662 220.851 214.513V213.043ZM216.826 210.145C217.218 209.767 217.64 209.485 218.093 209.298C218.545 209.111 219.047 209.018 219.598 209.018C219.994 209.018 220.347 209.083 220.655 209.214C220.963 209.345 221.222 209.527 221.432 209.76C221.642 209.993 221.8 210.276 221.908 210.607C222.015 210.938 222.069 211.302 222.069 211.699V216.235H221.516C221.394 216.235 221.301 216.216 221.236 216.179C221.17 216.137 221.119 216.058 221.082 215.941L220.942 215.269C220.755 215.442 220.573 215.596 220.396 215.731C220.218 215.862 220.032 215.974 219.836 216.067C219.64 216.156 219.43 216.223 219.206 216.27C218.986 216.321 218.741 216.347 218.471 216.347C218.195 216.347 217.936 216.31 217.694 216.235C217.451 216.156 217.239 216.039 217.057 215.885C216.879 215.731 216.737 215.537 216.63 215.304C216.527 215.066 216.476 214.786 216.476 214.464C216.476 214.184 216.553 213.916 216.707 213.659C216.861 213.398 217.11 213.167 217.456 212.966C217.801 212.765 218.251 212.602 218.807 212.476C219.362 212.345 220.043 212.271 220.851 212.252V211.699C220.851 211.148 220.732 210.733 220.494 210.453C220.256 210.168 219.908 210.026 219.451 210.026C219.143 210.026 218.884 210.066 218.674 210.145C218.468 210.22 218.289 210.306 218.135 210.404C217.985 210.497 217.855 210.584 217.743 210.663C217.635 210.738 217.528 210.775 217.421 210.775C217.337 210.775 217.264 210.754 217.204 210.712C217.143 210.665 217.092 210.609 217.05 210.544L216.826 210.145ZM225.15 210.565C225.374 210.08 225.649 209.702 225.976 209.431C226.302 209.156 226.701 209.018 227.173 209.018C227.322 209.018 227.464 209.034 227.6 209.067C227.74 209.1 227.863 209.151 227.971 209.221L227.88 210.152C227.852 210.269 227.782 210.327 227.67 210.327C227.604 210.327 227.509 210.313 227.383 210.285C227.257 210.257 227.114 210.243 226.956 210.243C226.732 210.243 226.531 210.276 226.354 210.341C226.181 210.406 226.025 210.504 225.885 210.635C225.749 210.761 225.626 210.92 225.514 211.111C225.406 211.298 225.308 211.512 225.22 211.755V216.235H223.967V209.144H224.681C224.816 209.144 224.909 209.17 224.961 209.221C225.012 209.272 225.047 209.361 225.066 209.487L225.15 210.565ZM231.243 216.347C230.683 216.347 230.252 216.191 229.948 215.878C229.65 215.565 229.5 215.115 229.5 214.527V210.187H228.646C228.572 210.187 228.509 210.166 228.457 210.124C228.406 210.077 228.38 210.007 228.38 209.914V209.417L229.542 209.27L229.829 207.079C229.843 207.009 229.874 206.953 229.92 206.911C229.972 206.864 230.037 206.841 230.116 206.841H230.746V209.284H232.797V210.187H230.746V214.443C230.746 214.742 230.819 214.963 230.963 215.108C231.108 215.253 231.295 215.325 231.523 215.325C231.654 215.325 231.766 215.309 231.859 215.276C231.957 215.239 232.041 215.199 232.111 215.157C232.181 215.115 232.24 215.078 232.286 215.045C232.338 215.008 232.382 214.989 232.419 214.989C232.485 214.989 232.543 215.029 232.594 215.108L232.958 215.703C232.744 215.904 232.485 216.062 232.181 216.179C231.878 216.291 231.565 216.347 231.243 216.347Z" fill="white"/>
</svg>
