<svg width="32" height="32" viewBox="0 0 32 32" fill="none" xmlns="http://www.w3.org/2000/svg">
<path d="M32 0H0V32H32V0Z" fill="white"/>
<g clip-path="url(#clip0_190_1608)">
<path d="M15.6681 12.6816C13.516 12.6816 11.7802 14.3849 11.7802 16.4967C11.7802 18.6084 13.516 20.3117 15.6681 20.3117C17.8202 20.3117 19.5561 18.6084 19.5561 16.4967C19.5561 14.3849 17.8202 12.6816 15.6681 12.6816ZM15.6681 18.9769C14.2774 18.9769 13.1404 17.8646 13.1404 16.4967C13.1404 15.1287 14.274 14.0164 15.6681 14.0164C17.0623 14.0164 18.1958 15.1287 18.1958 16.4967C18.1958 17.8646 17.0589 18.9769 15.6681 18.9769ZM20.622 12.5256C20.622 13.0203 20.2159 13.4154 19.7151 13.4154C19.211 13.4154 18.8083 13.017 18.8083 12.5256C18.8083 12.0342 19.2143 11.6357 19.7151 11.6357C20.2159 11.6357 20.622 12.0342 20.622 12.5256ZM23.1971 13.4287C23.1395 12.2367 22.8621 11.1808 21.9721 10.3109C21.0856 9.441 20.0095 9.16873 18.7948 9.10897C17.5428 9.03924 13.7901 9.03924 12.5381 9.10897C11.3267 9.16541 10.2507 9.43768 9.36075 10.3076C8.47081 11.1775 8.19672 12.2334 8.13581 13.4254C8.06475 14.6539 8.06475 18.3361 8.13581 19.5646C8.19334 20.7566 8.47081 21.8125 9.36075 22.6824C10.2507 23.5523 11.3233 23.8246 12.5381 23.8844C13.7901 23.9541 17.5428 23.9541 18.7948 23.8844C20.0095 23.8279 21.0856 23.5556 21.9721 22.6824C22.8587 21.8125 23.1362 20.7566 23.1971 19.5646C23.2681 18.3361 23.2681 14.6572 23.1971 13.4287ZM21.5796 20.8828C21.3157 21.5336 20.8047 22.0349 20.1381 22.2972C19.1399 22.6857 16.7712 22.5961 15.6681 22.5961C14.565 22.5961 12.193 22.6824 11.1981 22.2972C10.5349 22.0383 10.024 21.5369 9.75665 20.8828C9.36075 19.9033 9.45211 17.5791 9.45211 16.4967C9.45211 15.4142 9.36413 13.0867 9.75665 12.1105C10.0206 11.4597 10.5315 10.9584 11.1981 10.6961C12.1964 10.3076 14.565 10.3972 15.6681 10.3972C16.7712 10.3972 19.1433 10.3109 20.1381 10.6961C20.8013 10.9551 21.3123 11.4564 21.5796 12.1105C21.9755 13.09 21.8842 15.4142 21.8842 16.4967C21.8842 17.5791 21.9755 19.9066 21.5796 20.8828Z" fill="black"/>
</g>
<defs>
<clipPath id="clip0_190_1608">
<rect width="15.1594" height="17" fill="white" transform="translate(8.08508 8)"/>
</clipPath>
</defs>
</svg>
