<svg width="32" height="32" viewBox="0 0 32 32" fill="none" xmlns="http://www.w3.org/2000/svg">
<path d="M32 0H0V32H32V0Z" fill="white"/>
<g clip-path="url(#clip0_190_1616)">
<path d="M16.5489 8.20312C13.3086 8.20312 10.1062 10.3406 10.1062 13.8C10.1062 16 11.3568 17.25 12.1148 17.25C12.4275 17.25 12.6075 16.3875 12.6075 16.1438C12.6075 15.8531 11.859 15.2344 11.859 14.025C11.859 11.5125 13.7918 9.73125 16.2931 9.73125C18.4439 9.73125 20.0356 10.9406 20.0356 13.1625C20.0356 14.8219 19.3629 17.9344 17.1837 17.9344C16.3973 17.9344 15.7246 17.3719 15.7246 16.5656C15.7246 15.3844 16.5584 14.2406 16.5584 13.0219C16.5584 10.9531 13.5929 11.3281 13.5929 13.8281C13.5929 14.3531 13.6592 14.9344 13.896 15.4125C13.4602 17.2688 12.5696 20.0344 12.5696 21.9469C12.5696 22.5375 12.6549 23.1188 12.7117 23.7094C12.8191 23.8281 12.7654 23.8156 12.9296 23.7563C14.5214 21.6 14.4645 21.1781 15.1846 18.3562C15.5731 19.0875 16.5774 19.4812 17.3732 19.4812C20.7272 19.4812 22.2337 16.2469 22.2337 13.3313C22.2337 10.2281 19.524 8.20312 16.5489 8.20312Z" fill="black"/>
</g>
<defs>
<clipPath id="clip0_190_1616">
<rect width="12.1275" height="16" fill="white" transform="translate(10.1062 8)"/>
</clipPath>
</defs>
</svg>
