<svg width="32" height="32" viewBox="0 0 32 32" fill="none" xmlns="http://www.w3.org/2000/svg">
<path d="M32 0H0V32H32V0Z" fill="white"/>
<g clip-path="url(#clip0_190_1612)">
<path d="M22.5929 12.7411C22.6032 12.8832 22.6032 13.0253 22.6032 13.1675C22.6032 17.5025 19.2687 22.4974 13.1741 22.4974C11.2965 22.4974 9.55229 21.9593 8.08508 21.0253C8.35186 21.0558 8.60833 21.0659 8.88537 21.0659C10.4346 21.0659 11.8608 20.5482 12.9997 19.6649C11.5427 19.6345 10.3218 18.6903 9.90111 17.3908C10.1063 17.4213 10.3115 17.4416 10.527 17.4416C10.8245 17.4416 11.1221 17.4009 11.3991 17.3299C9.88062 17.0253 8.7417 15.7055 8.7417 14.1116V14.071C9.18287 14.3147 9.69592 14.467 10.2397 14.4873C9.34704 13.8984 8.76223 12.8933 8.76223 11.7563C8.76223 11.1472 8.92637 10.5888 9.21367 10.1015C10.845 12.0913 13.2972 13.3908 16.0469 13.5329C15.9956 13.2893 15.9648 13.0355 15.9648 12.7817C15.9648 10.9746 17.4423 9.5025 19.2789 9.5025C20.233 9.5025 21.0949 9.89844 21.7003 10.538C22.4492 10.3959 23.1674 10.1218 23.8036 9.74616C23.5573 10.5076 23.0341 11.1472 22.3466 11.5533C23.0136 11.4822 23.6599 11.2994 24.255 11.0457C23.8036 11.6954 23.2393 12.274 22.5929 12.7411Z" fill="black"/>
</g>
<defs>
<clipPath id="clip0_190_1612">
<rect width="16.17" height="16" fill="white" transform="translate(8.08508 8)"/>
</clipPath>
</defs>
</svg>
